<svg width="140" height="237" viewBox="0 0 140 237" fill="none" xmlns="http://www.w3.org/2000/svg">
<path d="M70.5464 71.388L75.6555 71.9007L78.6916 182H68.4946L70.5464 71.388Z" fill="#074970"/>
<path d="M68.8842 161H78.1125L78.6916 182H68.4946L68.8842 161Z" fill="#9DBEDE"/>
<path d="M76.4541 66.605C76.4541 68.2601 75.1119 69.6015 73.4541 69.6015C71.7986 69.6015 70.4541 68.2601 70.4541 66.605C70.4541 64.9498 71.7986 63.609 73.4541 63.609C75.1119 63.609 76.4541 64.9498 76.4541 66.605Z" fill="#074970"/>
<path d="M76.2925 70.5015L78.5483 66.9494C89.2353 71.0315 89.3469 70.4312 92.1172 72.2931C99.2174 77.0842 125.867 103.761 127.172 105.401C128.476 107.04 128.507 108.475 128.507 108.475L76.2925 70.5015ZM76.3838 61.9664L72.2783 61.0516C72.5208 49.6177 71.915 49.716 72.7346 46.4788C74.854 38.1797 90.9978 4.08165 92.1027 2.29796C93.2061 0.51589 94.5487 0.000516608 94.5487 0.000516608L76.3838 61.9664ZM68.5113 65.8842L70.2883 69.9752C61.4469 77.2439 61.9127 77.6376 58.9211 79.1262C51.2392 82.9276 14.8367 92.906 12.7627 93.2302C10.6909 93.5545 9.42636 92.8724 9.42636 92.8724L68.5113 65.8842Z" fill="#074970"/>
<path d="M79 169H68V182H79V169Z" fill="#FFB508"/>
<path d="M64 163H65.0118V167.629H64V163Z" fill="#074970"/>
<path d="M66.7405 163H67.7523V167.629H66.7405V163Z" fill="#074970"/>
<path d="M69.4816 163H70.4934V167.629H69.4816V163Z" fill="#074970"/>
<path d="M72.2227 163H73.2345V167.629H72.2227V163Z" fill="#074970"/>
<path d="M74.9631 163H75.9757V167.629H74.9631V163Z" fill="#074970"/>
<path d="M77.7042 163H78.7161V167.629H77.7042V163Z" fill="#074970"/>
<path d="M80.4453 163H81.4572V167.629H80.4453V163Z" fill="#074970"/>
<path d="M83.1877 163H84.1996V167.629H83.1877V163Z" fill="#074970"/>
<path d="M64 167.321H84.1987V169.449H64V167.321Z" fill="#074970"/>
<path d="M64 163H84.1987V164.213H64V163Z" fill="#074970"/>
<path opacity="0.8" d="M96.5 181.5C96.5 200.5 99 216 107.5 235.5M77 181.5C77 205 77 216 86.5 235.5M52.5 181.5C52.5 202.5 47 224.5 39.5 235.5M67 181.5C67 207 67 217 57.5 235.5" stroke="#1D6387"/>
<path d="M43 176H103V180C103 181.105 102.105 182 101 182H45C43.8954 182 43 181.105 43 180V176Z" fill="#FFB508"/>
</svg>
