<svg width="97" height="48" viewBox="0 0 97 48" fill="none" xmlns="http://www.w3.org/2000/svg">
<path d="M40.3825 10.5L42.5001 13.5H40.0001L38.7648 10.5L37.3237 7L36.5001 5L37.9119 7L40.3825 10.5Z" fill="#074970"/>
<path d="M42.5001 13.5V14.25H43.9476L43.1128 13.0675L42.5001 13.5ZM36.5001 5L37.1128 4.56749C36.8927 4.25559 36.4734 4.15885 36.1388 4.34276C35.8043 4.52667 35.6613 4.93255 35.8066 5.28556L36.5001 5ZM40.0001 13.5L39.3066 13.7856L39.4979 14.25H40.0001V13.5ZM43.0001 11.25C43.4143 11.25 43.7501 10.9142 43.7501 10.5C43.7501 10.0858 43.4143 9.75 43.0001 9.75V11.25ZM36.0001 9.75C35.5859 9.75 35.2501 10.0858 35.2501 10.5C35.2501 10.9142 35.5859 11.25 36.0001 11.25V9.75ZM39.5001 7.75C39.9143 7.75 40.2501 7.41421 40.2501 7C40.2501 6.58579 39.9143 6.25 39.5001 6.25V7.75ZM35.5001 6.25C35.0859 6.25 34.7501 6.58579 34.7501 7C34.7501 7.41421 35.0859 7.75 35.5001 7.75V6.25ZM43.1128 13.0675L40.9952 10.0675L39.7697 10.9325L41.8874 13.9325L43.1128 13.0675ZM40.9952 10.0675L38.5246 6.56749L37.2992 7.43251L39.7697 10.9325L40.9952 10.0675ZM38.5246 6.56749L37.1128 4.56749L35.8874 5.43251L37.2992 7.43251L38.5246 6.56749ZM35.8066 5.28556L36.6301 7.28556L38.0172 6.71444L37.1936 4.71444L35.8066 5.28556ZM36.6301 7.28556L38.0713 10.7856L39.4583 10.2144L38.0172 6.71444L36.6301 7.28556ZM38.0713 10.7856L39.3066 13.7856L40.6936 13.2144L39.4583 10.2144L38.0713 10.7856ZM40.0001 14.25H42.5001V12.75H40.0001V14.25ZM43.0001 9.75H40.3825V11.25H43.0001V9.75ZM40.3825 9.75H38.7648V11.25H40.3825V9.75ZM38.7648 9.75H36.0001V11.25H38.7648V9.75ZM39.5001 6.25H37.9119V7.75H39.5001V6.25ZM37.9119 6.25H37.3237V7.75H37.9119V6.25ZM37.3237 6.25H35.5001V7.75H37.3237V6.25Z" fill="#074970"/>
<rect x="23.0001" y="18.5" width="8" height="4" rx="1" fill="#9DBEDE"/>
<path fill-rule="evenodd" clip-rule="evenodd" d="M68.0001 29.5L65.4711 22.3344C65.1889 21.5347 64.4331 21 63.5851 21H57.0001L54.7467 15.141C54.5981 14.7548 54.2271 14.5 53.8133 14.5H38.5001C37.3956 14.5 36.5001 15.3954 36.5001 16.5V20H33.5001C32.9478 20 32.5001 20.4477 32.5001 21V21.5V24H29.0001H25.5001H21.0001L19.0001 35.5H32.5001H68.0001V29.5Z" fill="#074970"/>
<path d="M68.0001 29.5H68.5001V29.4144L68.4716 29.3336L68.0001 29.5ZM57.0001 21L56.5335 21.1795L56.6567 21.5H57.0001V21ZM36.5001 20V20.5H37.0001V20H36.5001ZM68.0001 35.5V36H68.5001V35.5H68.0001ZM21.0001 24L20.5258 23.8419L20.5139 23.8774L20.5075 23.9143L21.0001 24ZM19.0001 35.5L18.5075 35.4143L18.4057 36H19.0001V35.5ZM65.4711 22.3344L64.9996 22.5008V22.5008L65.4711 22.3344ZM21.5443 22.3675L21.0699 22.2094L21.5443 22.3675ZM32.5001 36H68.0001V35H32.5001V36ZM68.5001 35.5V29.5H67.5001V35.5H68.5001ZM32.0001 21.5V24H33.0001V21.5H32.0001ZM32.0001 24V35.5H33.0001V24H32.0001ZM20.5075 23.9143L18.5075 35.4143L19.4927 35.5857L21.4927 24.0857L20.5075 23.9143ZM19.0001 36H32.5001V35H19.0001V36ZM32.5001 23.5H29.0001V24.5H32.5001V23.5ZM29.5001 24V21H28.5001V24H29.5001ZM29.0001 23.5H25.5001V24.5H29.0001V23.5ZM25.5001 23.5H21.0001V24.5H25.5001V23.5ZM26.0001 24V21H25.0001V24H26.0001ZM32.0001 21V21.5H33.0001V21H32.0001ZM29.0001 21.5H32.5001V20.5H29.0001V21.5ZM21.0699 22.2094L20.5258 23.8419L21.4745 24.1581L22.0186 22.5257L21.0699 22.2094ZM64.9996 22.5008L67.5286 29.6664L68.4716 29.3336L65.9426 22.1679L64.9996 22.5008ZM25.5001 21.5H29.0001V20.5H25.5001V21.5ZM33.0001 21C33.0001 20.7239 33.224 20.5 33.5001 20.5V19.5C32.6717 19.5 32.0001 20.1716 32.0001 21H33.0001ZM33.5001 20.5H36.5001V19.5H33.5001V20.5ZM37.0001 20V16.5H36.0001V20H37.0001ZM37.0001 16.5C37.0001 15.6716 37.6717 15 38.5001 15V14C37.1194 14 36.0001 15.1193 36.0001 16.5H37.0001ZM38.5001 15H53.8133V14H38.5001V15ZM53.8133 15C54.0202 15 54.2057 15.1274 54.28 15.3205L55.2133 14.9615C54.9905 14.3822 54.434 14 53.8133 14V15ZM54.28 15.3205L56.5335 21.1795L57.4668 20.8205L55.2133 14.9615L54.28 15.3205ZM57.0001 21.5H63.5851V20.5H57.0001V21.5ZM63.5851 21.5C64.2211 21.5 64.7879 21.9011 64.9996 22.5008L65.9426 22.1679C65.5898 21.1684 64.645 20.5 63.5851 20.5V21.5ZM25.5001 20.5H23.4416V21.5H25.5001V20.5ZM38.5001 14C37.1194 14 36.0001 15.1193 36.0001 16.5H37.0001C37.0001 15.6716 37.6717 15 38.5001 15V14ZM22.0186 22.5257C22.2228 21.9131 22.796 21.5 23.4416 21.5V20.5C22.3656 20.5 21.4102 21.1886 21.0699 22.2094L22.0186 22.5257ZM55.2133 14.9615C54.9905 14.3822 54.434 14 53.8133 14V15C54.0202 15 54.2057 15.1274 54.28 15.3205L55.2133 14.9615ZM33.0001 21C33.0001 20.7239 33.224 20.5 33.5001 20.5V19.5C32.6717 19.5 32.0001 20.1716 32.0001 21H33.0001ZM63.5851 21.5C64.2211 21.5 64.7879 21.9011 64.9996 22.5008L65.9426 22.1679C65.5898 21.1684 64.645 20.5 63.5851 20.5V21.5Z" fill="#074970"/>
<path d="M52.0394 14.8072L47.9608 7.69278M49.5001 14.5L47.8552 11.7533" stroke="#074970" stroke-width="1.5" stroke-linecap="round"/>
<rect x="39.5001" y="16" width="3" height="3" rx="1" fill="white"/>
<rect x="44.5001" y="16" width="3" height="3" rx="1" fill="white"/>
<rect x="49.5001" y="16" width="3" height="3" rx="1" fill="white"/>
<rect x="35.5001" y="23" width="4" height="5" rx="1" fill="white"/>
<rect x="43.5001" y="23" width="4" height="5" rx="1" fill="white"/>
<rect x="51.5001" y="23" width="4" height="5" rx="1" fill="white"/>
<rect x="59.5001" y="23" width="4" height="5" rx="1" fill="white"/>
<rect x="26.5001" y="25.5" width="5" height="10" rx="1.5" fill="white" stroke="#9DBEDE"/>
<path d="M3.83041 45.714C3.65618 46.9199 4.59147 48 5.80985 48H88.0001C91.5001 48 90.5001 44 90.9966 41.0818H4.49967L3.83041 45.714Z" fill="#074970"/>
<path d="M8.05467 33.6095C7.13687 33.5971 6.33317 34.2094 6.09661 35.0963L4.50006 41.0818L91.0001 41.0819C91.5001 38 92.7132 32.0116 94.0001 30.1327C94.9209 28.7884 77.0908 29.8464 58.9053 30.1327C55.7926 30.1817 51.1583 33.5205 48.046 33.5872C33.049 33.9085 13.626 33.6851 8.05467 33.6095Z" fill="#9DBEDE"/>
</svg>
