<svg width="98" height="48" viewBox="0 0 98 48" fill="none" xmlns="http://www.w3.org/2000/svg">
<path d="M80.6663 41.3569V45.2845L77.2297 41.8479" stroke="#9DBEDE"/>
<path d="M45.318 41.3569V45.2845L48.7546 41.8479" stroke="#9DBEDE"/>
<path d="M55.646 21.719L52.7003 20.7371M55.646 21.719H54.1732M55.646 21.719V18.299M55.646 17.7914L52.7003 20.7371M55.646 17.7914H54.1732H52.7003V18.299M55.646 17.7914V18.299M52.7003 21.719V20.7371M52.7003 20.7371V18.299M55.646 18.299H59H52.7003M49 18.299H52.7003" stroke="#9DBEDE" stroke-width="0.5"/>
<path d="M78.2776 28.4308C76.8761 27.8242 71.3385 27.1195 71.3385 27.1195C71.3385 27.1195 70.959 25.0134 69.3747 24.1738C67.7903 23.3342 61.5166 22.8375 61.5166 22.8375C61.5166 22.8375 60.3442 21.2026 59.5555 20.7371L47.7727 20.7371C46.5743 21.352 44.8272 24.1738 44.8272 24.1738L38.4448 27.1195L14.9844 28.8896C14.9844 28.8896 9.4934 19.3389 8.98792 17.7914C8.48245 16.2439 7.79594 15.5904 7.17067 15.5082C6.54541 15.4261 3.06595 15.1099 3.06595 15.1099L5.06033 26.6285C5.06033 26.6285 0.723874 31.0423 0.641744 31.6676C0.559614 32.2929 3.95652 36.0871 6.66971 37.4294L14.9183 34.0966C16.0421 34.0331 17.1693 34.0867 18.282 34.2567C20.4302 34.5389 31.7874 37.4553 34.2037 37.8408C36.6201 38.2263 39.9833 41.593 44.1413 42.1392C48.2993 42.6853 62.2672 42.6492 67.4759 42.7018C72.6846 42.7545 82.2955 42.186 82.4924 42.1392C82.6894 42.0924 86.9794 41.8063 88.2582 41.2019C89.537 40.5975 88.926 37.2439 88.2582 36.4475L82.1393 34.4837C81.4302 33.968 79.679 29.0374 78.2776 28.4308Z" fill="#1E496D"/>
<path d="M0.641724 31.6677C0.559595 32.293 3.9565 36.0873 6.66968 37.4295C6.66968 37.4295 6.97501 36.8311 7.17065 36.4476C5.76085 36.3888 1.31827 32.7406 0.641724 31.6677Z" fill="#9DBEDE"/>
<path d="M67.4758 42.702C72.6845 42.7546 82.2954 42.1861 82.4924 42.1393C82.5307 42.1302 82.7243 42.112 83.0206 42.0842C84.2459 41.969 87.2284 41.6887 88.2582 41.202C89.1742 40.7691 89.2556 39.4294 88.9827 38.4114L45.8089 37.8409L34.2037 34.0967L18.2819 32.029C18.2819 32.029 15.3701 31.538 13.8973 32.5199C12.4244 33.5018 8.98777 36.1248 7.17065 36.4476C6.97501 36.8311 6.66968 37.4295 6.66968 37.4295L14.9183 34.0967C16.042 34.0332 17.1693 34.0869 18.2819 34.2568C19.4066 34.4046 23.0552 35.2743 26.6235 36.1248C29.8712 36.8989 33.0524 37.6572 34.2037 37.8409C35.23 38.0047 36.4271 38.7062 37.7833 39.501C39.6203 40.5775 41.7493 41.8251 44.1412 42.1393C47.5635 42.5888 57.6311 42.6439 63.9909 42.6786C65.3582 42.6861 66.5542 42.6926 67.4758 42.702Z" fill="#9DBEDE"/>
<rect x="47.7728" y="28.5923" width="3.92759" height="5.89139" rx="1" fill="white"/>
<rect x="69.3745" y="28.5923" width="3.92759" height="5.89139" rx="1" fill="white"/>
<rect x="61.5193" y="28.5923" width="3.92759" height="5.89139" rx="1" fill="white"/>
<rect x="55.6279" y="28.5923" width="3.92759" height="5.89139" rx="1" fill="white"/>
<path d="M80.6664 34.4837C79.7608 32.5637 79.2359 30.9995 77.9538 29.3701C77.8064 29.1828 77.5915 29.0617 77.3564 29.0225L75.8481 28.7711C75.5434 28.7203 75.2659 28.9554 75.2659 29.2643V33.9837C75.2659 34.2598 75.49 34.4837 75.7661 34.4837H80.6664Z" fill="white"/>
<circle cx="8.00586" cy="31.047" r="3.43664" fill="white"/>
<circle cx="8.00589" cy="31.047" r="2.30474" stroke="#074970" stroke-width="0.3"/>
<path d="M7.62602 26.7831L7.45198 30.9036L7.96995 30.9439L8.64798 30.2672L8.32226 27.2018C8.32226 27.2018 8.29737 26.8432 7.62602 26.7831Z" fill="#1E496D"/>
<path d="M11.3758 32.7407L8.02778 30.3324L7.70962 30.7432L7.90286 31.6814L10.6435 33.0926C10.6435 33.0926 10.9569 33.2687 11.3758 32.7407Z" fill="#1E496D"/>
<path d="M4.7667 33.5297L8.17825 31.2124L7.90177 30.7725L6.95419 30.6318L4.68761 32.7211C4.68761 32.7211 4.41459 32.9549 4.7667 33.5297Z" fill="#1E496D"/>
<circle cx="80.6663" cy="45.7755" r="1.47285" fill="#9DBEDE" stroke="#074970"/>
<circle r="1.47285" transform="matrix(-1 0 0 1 45.318 45.7755)" fill="#9DBEDE" stroke="#074970"/>
<path d="M50.7366 17.4042C53.4679 16.6246 54.9755 16.5981 57.6099 17.4042V18.7733H50.7366V17.4042Z" fill="#074970"/>
<path d="M97.6131 17.7914L58.5918 17.7914L58.5918 18.7733L60.2836 19.2643L96.6808 18.9782C96.6808 18.9782 97.5565 18.4647 97.6131 17.7914Z" fill="#1E496D"/>
<path d="M12.7993 18.9248L49.8035 18.7345L49.8174 17.8181L48.2542 17.368L13.6814 17.8126C13.6814 17.8126 12.8614 18.2962 12.7993 18.9248Z" fill="#1E496D"/>
</svg>
