<svg width="134" height="63" viewBox="0 0 134 63" fill="none" xmlns="http://www.w3.org/2000/svg">
<path d="M26 33.0882C26 32.276 26.6584 31.6176 27.4706 31.6176H31.7049L64.5618 35.5134C64.9851 35.5636 65.3463 35.843 65.5012 36.2401C65.5996 36.4924 65.4136 36.7647 65.1428 36.7647H28.2059C26.9876 36.7647 26 35.7771 26 34.5588V33.0882Z" fill="#074970"/>
<path d="M26 26.4706C26 25.6584 26.6584 25 27.4706 25H31.7049L64.5618 28.8957C64.9851 28.9459 65.3463 29.2253 65.5012 29.6224C65.5996 29.8747 65.4136 30.1471 65.1428 30.1471H28.2059C26.9876 30.1471 26 29.1595 26 27.9412V26.4706Z" fill="#074970"/>
<path d="M26 39.7059C26 38.8937 26.6584 38.2353 27.4706 38.2353H31.7049L64.5618 42.131C64.9851 42.1812 65.3463 42.4606 65.5012 42.8577C65.5996 43.11 65.4136 43.3823 65.1428 43.3823H28.2059C26.9876 43.3823 26 42.3947 26 41.1765V39.7059Z" fill="#074970"/>
<path d="M26 46.4706C26 45.6584 26.6584 45 27.4706 45H31.7049L64.5618 48.8957C64.9851 48.9459 65.3463 49.2253 65.5012 49.6224C65.5996 49.8747 65.4136 50.1471 65.1428 50.1471H28.2059C26.9876 50.1471 26 49.1595 26 47.9412V46.4706Z" fill="#074970"/>
<rect x="67" y="35" width="39" height="7" rx="2" fill="#FFB508"/>
<rect x="67" y="27" width="39" height="7" rx="2" fill="#FFB508"/>
<rect x="67" y="43" width="39" height="7" rx="2" fill="#FFB508"/>
<path d="M30.1666 51.5645L35.6303 44.6102V51.5645H30.1666ZM30.1666 51.5645V45.2622" stroke="#FFB508"/>
<path d="M30.1666 44.8996L35.6303 37.9453V44.8996H30.1666ZM30.1666 44.8996V38.5973" stroke="#FFB508"/>
<path d="M30.1666 38.277L35.6303 31.3226V38.277H30.1666ZM30.1666 38.277V31.9746" stroke="#FFB508"/>
<path d="M30.1666 31.6543L35.6303 24.7V31.6543H30.1666ZM30.1666 31.6543V25.3519" stroke="#FFB508"/>
<path d="M73 51.8646L78.4636 44.9102V51.8646H73ZM73 51.8646V45.5622" stroke="#074970"/>
<path d="M73 45.1997L78.4636 38.2453V45.1997H73ZM73 45.1997V38.8973" stroke="#074970"/>
<path d="M73 38.577L78.4636 31.6227V38.577H73ZM73 38.577V32.2746" stroke="#074970"/>
<path d="M73 31.9543L78.4636 25V31.9543H73ZM73 31.9543V25.652" stroke="#074970"/>
<path d="M55 52.2523L60.4636 45.298V52.2523H55ZM55 52.2523V45.95" stroke="#FFB508"/>
<path d="M55 45.298L60.4636 38.3437V45.298H55ZM55 45.298V38.9956" stroke="#FFB508"/>
<path d="M60.4636 32.0413V38.3437H55M60.4636 32.0413L55 38.3437M60.4636 32.0413L55 32.0413M60.4636 32.0413L55 26V32.0413M55 38.3437V32.0413" stroke="#FFB508"/>
<path d="M92.8334 51.6312L98.297 44.6769V51.6312H92.8334ZM92.8334 51.6312V45.3289" stroke="#074970"/>
<path d="M92.8334 44.9663L98.297 38.012V44.9663H92.8334ZM92.8334 44.9663V38.664" stroke="#074970"/>
<path d="M98.297 32.0413V38.3437H92.8334M98.297 32.0413L92.8334 38.3437M98.297 32.0413L92.8334 32.0413M98.297 32.0413L92.8334 26V32.0413M92.8334 38.3437V32.0413" stroke="#074970"/>
<path d="M54 10H58L57.5 13H56H54.5L54 10Z" fill="#074970"/>
<path d="M54 17C54 18.1046 54.8954 19 56 19C57.1046 19 58 18.1046 58 17C58 15.8954 57.1046 15 56 15V13" stroke="#074970"/>
<rect x="15" y="34" width="4" height="1" fill="#1D7DB0"/>
<path d="M22.5 27.5L15.3836 27.8897M22.5 27.5L15.3836 22.6M22.5 27.5V17.3954M22.5 27.5L29 21.3012M50.2877 1L46.0933 5M44.9178 1H53.5M44.9178 1L41.8989 3.20786M44.9178 1L46.0933 5M15.3836 22.6H13.3699M15.3836 22.6V27.8897M15.3836 22.6L22.5 17.3954M13.3699 22.6V28M13.3699 22.6L8 24.5M13.3699 22.6L11 19.3518M8 24.5V18H10.0137L11 19.3518M8 24.5L13.3699 28M8 24.5L11 19.3518M13.3699 28L15.3836 27.8897M53.5 1H57V10.5H55L53.5 1ZM22.5 17.3954L29 21.3012M22.5 17.3954L29 12.6416M29 21.3012V12.6416M29 21.3012L35.5 15.1024M29 12.6416L35.5 15.1024M29 12.6416L35.5 7.88776M35.5 15.1024V7.88776M35.5 15.1024L41.8989 9M35.5 7.88776L41.8989 9M35.5 7.88776L41.8989 3.20786M41.8989 9V3.20786M41.8989 9L46.0933 5M41.8989 3.20786L46.0933 5" stroke="#074970"/>
<path d="M14.7806 35H19.2194M14.7806 35L14.3355 39.25M14.7806 35L19.6645 39.25M19.2194 35L14.3355 39.25M19.2194 35L19.6645 39.25M14.3355 39.25L13.8903 43.5M14.3355 39.25L20.1097 43.5M19.6645 39.25L20.1097 43.5M19.6264 39.25L13.8903 43.5M13.8903 43.5L20.5548 47.75M13.8903 43.5L13.4452 47.75M20.1097 43.5L13.4452 47.75M20.1097 43.5L20.5548 47.75M13.4452 47.75L13 52L20.5548 47.75M13.4452 47.75L21 52L20.5548 47.75" stroke="#1D7DB0" stroke-width="0.5"/>
<path d="M20 34V32H20.7658C20.9142 32 21.0549 31.9341 21.1499 31.8201L22.7682 29.8781C22.918 29.6984 23 29.4719 23 29.2379V25H11V29.238C11 29.4719 11.082 29.6984 11.2318 29.8781L12.8501 31.8201C12.9451 31.9341 13.0858 32 13.2342 32H14V34H20Z" fill="#074970"/>
<rect width="1" height="2" transform="matrix(-1 0 0 1 22 26)" fill="white"/>
<rect width="1" height="2" transform="matrix(-1 0 0 1 20 26)" fill="white"/>
<path d="M109 42C109 41.4477 109.448 41 110 41H118C118.552 41 119 41.4477 119 42V52C119 52.5523 118.552 53 118 53H110C109.448 53 109 52.5523 109 52L109 42Z" fill="#074970"/>
<path d="M120 44C120 43.4477 120.448 43 121 43H129C129.552 43 130 43.4477 130 44V52C130 52.5523 129.552 53 129 53H121C120.448 53 120 52.5523 120 52L120 44Z" fill="#074970"/>
<path d="M111 31H113.5H116H118.5H121H123.5H126L125 36H122.5H120.5H118.5H116.5H114.5H112L111 31Z" fill="white"/>
<path fill-rule="evenodd" clip-rule="evenodd" d="M126.345 36L128 52H112L112 36L111 31H126L125 36H126.345ZM118 35V32H116.602L116.902 35H118ZM119 35H120.098L120.398 32H119V35ZM121.102 35H122.19L122.79 32H121.402L121.102 35ZM123.81 32L123.21 35H124.18L124.78 32H123.81ZM112.22 32L112.82 35H113.79L113.19 32H112.22ZM114.21 32L114.81 35H115.898L115.598 32H114.21Z" fill="#074970"/>
<rect x="122" y="27" width="1.5" height="4" fill="#074970"/>
<rect x="123" y="24" width="0.5" height="7" fill="#074970"/>
<rect x="113" y="37" width="1" height="3" fill="white"/>
<rect x="115" y="37" width="1" height="3" fill="white"/>
<rect x="117" y="37" width="1" height="3" fill="white"/>
<path d="M2.27903 55.6008C3.07324 55.8877 4.09993 56.4822 4.94437 57.7143H128L133.166 48.4886C133.54 47.822 133.058 47 132.294 47H118.236C117.479 47 116.786 47.428 116.447 48.1056L114.5 52H33.8698H1V54.0207C1 54.7457 1.59722 55.3546 2.27903 55.6008Z" fill="#9DBEDE" stroke="#9DBEDE"/>
<path d="M7.12135 62H124.531C124.978 62 125.394 61.7727 125.635 61.3967L128 57.7143H4.94434C5.30546 58.4962 5.41951 59.2447 5.41326 59.8911C5.40371 60.8795 6.13293 62 7.12135 62Z" fill="#074970" stroke="#074970"/>
</svg>
