<svg width="198" height="89" viewBox="0 0 198 89" fill="none" xmlns="http://www.w3.org/2000/svg">
<path d="M90.4706 59.7059C89.6584 59.7059 89 59.0475 89 58.2353L89 54.001L92.8957 21.1441C92.9459 20.7208 93.2253 20.3596 93.6224 20.2047C93.8747 20.1063 94.1471 20.2923 94.1471 20.5631L94.1471 57.5C94.1471 58.7183 93.1595 59.7059 91.9412 59.7059L90.4706 59.7059Z" fill="#074970"/>
<path d="M104.471 59.7059C103.658 59.7059 103 59.0475 103 58.2353L103 54.001L106.896 21.1441C106.946 20.7208 107.225 20.3596 107.622 20.2047C107.875 20.1063 108.147 20.2923 108.147 20.5631L108.147 57.5C108.147 58.7183 107.159 59.7059 105.941 59.7059L104.471 59.7059Z" fill="#074970"/>
<path d="M118.471 59.7059C117.658 59.7059 117 59.0475 117 58.2353L117 54.001L120.896 21.1441C120.946 20.7208 121.225 20.3596 121.622 20.2047C121.875 20.1063 122.147 20.2923 122.147 20.5631L122.147 57.5C122.147 58.7183 121.159 59.7059 119.941 59.7059L118.471 59.7059Z" fill="#074970"/>
<path d="M96.4706 59.7059C95.6584 59.7059 95 59.0475 95 58.2353L95 54.001L98.8957 21.1441C98.9459 20.7208 99.2253 20.3596 99.6224 20.2047C99.8747 20.1063 100.147 20.2923 100.147 20.5631L100.147 57.5C100.147 58.7183 99.1595 59.7059 97.9412 59.7059L96.4706 59.7059Z" fill="#074970"/>
<path d="M110.471 59.7059C109.658 59.7059 109 59.0475 109 58.2353L109 54.001L112.896 21.1441C112.946 20.7208 113.225 20.3596 113.622 20.2047C113.875 20.1063 114.147 20.2923 114.147 20.5631L114.147 57.5C114.147 58.7183 113.159 59.7059 111.941 59.7059L110.471 59.7059Z" fill="#074970"/>
<path d="M124.471 59.7059C123.658 59.7059 123 59.0475 123 58.2353L123 54.001L126.896 21.1441C126.946 20.7208 127.225 20.3596 127.622 20.2047C127.875 20.1063 128.147 20.2923 128.147 20.5631L128.147 57.5C128.147 58.7183 127.159 59.7059 125.941 59.7059L124.471 59.7059Z" fill="#074970"/>
<rect x="159" y="21" width="39" height="7" rx="2" transform="rotate(90 159 21)" fill="#FFB508"/>
<rect x="167" y="21" width="39" height="7" rx="2" transform="rotate(90 167 21)" fill="#FFB508"/>
<rect x="147" y="21" width="39" height="7" rx="2" transform="rotate(90 147 21)" fill="#FFB508"/>
<rect x="139" y="21" width="39" height="7" rx="2" transform="rotate(90 139 21)" fill="#FFB508"/>
<path d="M92.1666 61.5645L97.6303 54.6102V61.5645H92.1666ZM92.1666 61.5645V55.2622" stroke="#FFB508"/>
<path d="M92.1666 54.8996L97.6303 47.9453V54.8996H92.1666ZM92.1666 54.8996V48.5973" stroke="#FFB508"/>
<path d="M92.1666 48.277L97.6303 41.3226V48.277H92.1666ZM92.1666 48.277V41.9746" stroke="#FFB508"/>
<path d="M92.1666 41.6543L97.6303 34.7V41.6543H92.1666ZM92.1666 41.6543V35.3519" stroke="#FFB508"/>
<path d="M137 61.8646L142.464 54.9102V61.8646H137ZM137 61.8646V55.5622" stroke="#074970"/>
<path d="M137 55.1997L142.464 48.2453V55.1997H137ZM137 55.1997V48.8973" stroke="#074970"/>
<path d="M137 48.577L142.464 41.6227V48.577H137ZM137 48.577V42.2746" stroke="#074970"/>
<path d="M137 41.9543L142.464 35V41.9543H137ZM137 41.9543V35.652" stroke="#074970"/>
<path d="M106 62.2523L111.464 55.298V62.2523H106ZM106 62.2523V55.95" stroke="#FFB508"/>
<path d="M106 55.298L111.464 48.3437V55.298H106ZM106 55.298V48.9956" stroke="#FFB508"/>
<path d="M111.464 42.0413V48.3437H106M111.464 42.0413L106 48.3437M111.464 42.0413L106 42.0413M111.464 42.0413L106 36V42.0413M106 48.3437V42.0413" stroke="#FFB508"/>
<path d="M120 62.2523L125.464 55.298V62.2523H120ZM120 62.2523V55.95" stroke="#FFB508"/>
<path d="M120 55.298L125.464 48.3437V55.298H120ZM120 55.298V48.9956" stroke="#FFB508"/>
<path d="M125.464 42.0413V48.3437H120M125.464 42.0413L120 48.3437M125.464 42.0413L120 42.0413M125.464 42.0413L120 36V42.0413M120 48.3437V42.0413" stroke="#FFB508"/>
<path d="M156.833 61.6312L162.297 54.6769V61.6312H156.833ZM156.833 61.6312V55.3289" stroke="#074970"/>
<path d="M156.833 54.9663L162.297 48.012V54.9663H156.833ZM156.833 54.9663V48.664" stroke="#074970"/>
<path d="M162.297 42.0413V48.3437H156.833M162.297 42.0413L156.833 48.3437M162.297 42.0413L156.833 42.0413M162.297 42.0413L156.833 36V42.0413M156.833 48.3437V42.0413" stroke="#074970"/>
<path d="M46 16V24M46 16L49 24M46 16L43 24" stroke="#1D7DB0" stroke-width="0.5"/>
<path d="M43.5 24.5H43H42.5V23.5H49.5V24.5H49H48.5H48H44H43.5Z" fill="#074970" stroke="#074970"/>
<rect width="4" height="1" transform="matrix(-1 0 0 1 81 44)" fill="#1D7DB0"/>
<path d="M73.5 37.5L80.6164 37.8897M73.5 37.5L80.6164 32.6M73.5 37.5L79.5 20.8954M73.5 37.5L73 24.8012M51.7123 4.5L55.9067 8.5M57.0822 4.5H48.5M57.0822 4.5L60.1011 6.70786M57.0822 4.5L55.9067 8.5M80.6164 32.6H82.6301M80.6164 32.6V37.8897M80.6164 32.6L79.5 20.8954M82.6301 32.6V38M82.6301 32.6L88 34.5M82.6301 32.6L85 29.3518M88 34.5V28H85.9863L85 29.3518M88 34.5L82.6301 38M88 34.5L85 29.3518M82.6301 38L80.6164 37.8897M48.5 4.5H45V14H47L48.5 4.5ZM79.5 20.8954L73 24.8012M79.5 20.8954L73 16.1416M73 24.8012V16.1416M73 24.8012L66.5 18.6024M73 16.1416L66.5 18.6024M73 16.1416L66.5 11.3878M66.5 18.6024V11.3878M66.5 18.6024L60.1011 12.5M66.5 11.3878L60.1011 12.5M66.5 11.3878L60.1011 6.70786M60.1011 12.5V6.70786M60.1011 12.5L55.9067 8.5M60.1011 6.70786L55.9067 8.5" stroke="#074970"/>
<path d="M81.2194 45H76.7806M81.2194 45L81.6645 49.25M81.2194 45L76.3355 49.25M76.7806 45L81.6645 49.25M76.7806 45L76.3355 49.25M81.6645 49.25L82.1097 53.5M81.6645 49.25L75.8903 53.5M76.3355 49.25L75.8903 53.5M76.3736 49.25L82.1097 53.5M82.1097 53.5L75.4452 57.75M82.1097 53.5L82.5548 57.75M75.8903 53.5L82.5548 57.75M75.8903 53.5L75.4452 57.75M82.5548 57.75L83 62L75.4452 57.75M82.5548 57.75L75 62L75.4452 57.75" stroke="#1D7DB0" stroke-width="0.5"/>
<path d="M76 44V42H75.2342C75.0858 42 74.9451 41.9341 74.8501 41.8201L73.2318 39.8781C73.082 39.6984 73 39.4719 73 39.2379V35H85V39.238C85 39.4719 84.918 39.6984 84.7682 39.8781L83.1499 41.8201C83.0549 41.9341 82.9142 42 82.7658 42H82V44H76Z" fill="#074970"/>
<rect x="74" y="36" width="1" height="2" fill="white"/>
<rect x="76" y="36" width="1" height="2" fill="white"/>
<path d="M48 14H44L44.5 17H46H47.5L48 14Z" fill="#074970"/>
<path d="M173 52C173 51.4477 173.448 51 174 51H182C182.552 51 183 51.4477 183 52V62C183 62.5523 182.552 63 182 63H174C173.448 63 173 62.5523 173 62L173 52Z" fill="#074970"/>
<path d="M184 54C184 53.4477 184.448 53 185 53H193C193.552 53 194 53.4477 194 54V62C194 62.5523 193.552 63 193 63H185C184.448 63 184 62.5523 184 62L184 54Z" fill="#074970"/>
<path d="M175 41H177.5H180H182.5H185H187.5H190L189 46H186.5H184.5H182.5H180.5H178.5H176L175 41Z" fill="white"/>
<path fill-rule="evenodd" clip-rule="evenodd" d="M190.345 46L192 62H176L176 46L175 41H190L189 46H190.345ZM182 45V42H180.602L180.902 45H182ZM183 45H184.098L184.398 42H183V45ZM185.102 45H186.19L186.79 42H185.402L185.102 45ZM187.81 42L187.21 45H188.18L188.78 42H187.81ZM176.22 42L176.82 45H177.79L177.19 42H176.22ZM178.21 42L178.81 45H179.898L179.598 42H178.21Z" fill="#074970"/>
<rect x="186" y="37" width="1.5" height="4" fill="#074970"/>
<rect x="187" y="34" width="0.5" height="7" fill="#074970"/>
<rect x="177" y="47" width="1" height="3" fill="white"/>
<rect x="179" y="47" width="1" height="3" fill="white"/>
<rect x="181" y="47" width="1" height="3" fill="white"/>
<path d="M66.279 65.6008C67.0732 65.8877 68.0999 66.4822 68.9444 67.7143H192L197.166 58.4886C197.54 57.822 197.058 57 196.294 57H182.236C181.479 57 180.786 57.428 180.447 58.1056L178.5 62H97.8698H65V64.0207C65 64.7457 65.5972 65.3546 66.279 65.6008Z" fill="#9DBEDE" stroke="#9DBEDE"/>
<path d="M71.1214 72H188.531C188.978 72 189.394 71.7727 189.635 71.3967L192 67.7143H68.9444C69.3055 68.4962 69.4195 69.2447 69.4133 69.8911C69.4037 70.8795 70.133 72 71.1214 72Z" fill="#074970" stroke="#074970"/>
<path d="M180 69V89M86 69V89" stroke="#074970" stroke-width="3"/>
<path opacity="0.8" d="M170 71V88M96 71V88" stroke="#074970" stroke-width="2"/>
<path d="M33.697 27.3365L34.9057 71.1659H31.0173L31.8337 27.1495" fill="#074970"/>
<path d="M33.7253 25.1687C33.8915 25.749 33.5556 26.3541 32.9744 26.5206C32.394 26.6868 31.7879 26.3516 31.6217 25.7713C31.4555 25.191 31.7922 24.5858 32.3726 24.4196C32.9538 24.2531 33.559 24.5884 33.7253 25.1687Z" fill="#074970"/>
<path d="M34.0599 26.551L34.4941 25.0792C38.6509 25.4371 38.6297 25.2155 39.788 25.5901C42.7584 26.5568 54.7806 33.2335 55.4029 33.6774C56.0246 34.1212 56.1798 34.6212 56.1798 34.6212L34.0599 26.551ZM33.2348 23.5495L31.7036 23.641C30.6404 19.608 30.4379 19.7033 30.4001 18.486C30.3097 15.3635 32.5456 1.78759 32.7538 1.05127C32.9617 0.31567 33.3807 0.000153058 33.3807 0.000153058L33.2348 23.5495ZM30.8681 25.7136L31.902 26.9695C29.5321 30.4057 29.735 30.497 28.8356 31.3194C26.5241 33.4235 14.7635 40.5776 14.0689 40.8995C13.3751 41.2213 12.8632 41.1091 12.8632 41.1091L30.8681 25.7136Z" fill="#074970"/>
<path d="M34.8326 65.5233H31.0622L29.9766 87.5988H35.9189L34.8326 65.5233Z" fill="#FFB508"/>
</svg>
