<svg width="191" height="106" viewBox="0 0 191 106" fill="none" xmlns="http://www.w3.org/2000/svg">
<path d="M27.3159 97.2916C42.0245 92.1355 52 97.2916 52 97.2916V106L0 106V97.2916C0 97.2916 12.6073 102.448 27.3159 97.2916Z" fill="#1D7DB0"/>
<path opacity="0.8" d="M23.0286 95.0833C7.42857 90.3959 0 95.0833 0 95.0833V103H52V95.0833C52 95.0833 38.6286 99.7707 23.0286 95.0833Z" fill="#1D7DB0"/>
<g opacity="0.5">
<rect width="3.92157" height="0.980392" transform="matrix(-1 0 0 1 60.9745 74.353)" fill="#868EAA"/>
<path d="M53.6215 67.9804L60.5984 68.3625M53.6215 67.9804L60.5984 63.1765M53.6215 67.9804V58.0739M53.6215 67.9804L47.249 61.9031M26.3787 42L30.4908 45.9216M31.6433 42H23.2294M31.6433 42L34.603 44.1646M31.6433 42L30.4908 45.9216M60.5984 63.1765H62.5726M60.5984 63.1765V68.3625M60.5984 63.1765L53.6215 58.0739M62.5726 63.1765V68.4706M62.5726 63.1765L67.8372 65.0392M62.5726 63.1765L64.896 59.992M67.8372 65.0392V58.6667H65.863L64.896 59.992M67.8372 65.0392L62.5726 68.4706M67.8372 65.0392L64.896 59.992M62.5726 68.4706L60.5984 68.3625M23.2294 42H19.798V51.3137H21.7588L23.2294 42ZM53.6215 58.0739L47.249 61.9031M53.6215 58.0739L47.249 53.4133M47.249 61.9031V53.4133M47.249 61.9031L40.8764 55.8259M47.249 53.4133L40.8764 55.8259M47.249 53.4133L40.8764 48.7527M40.8764 55.8259V48.7527M40.8764 55.8259L34.603 49.8431M40.8764 48.7527L34.603 49.8431M40.8764 48.7527L34.603 44.1646M34.603 49.8431V44.1646M34.603 49.8431L30.4908 45.9216M34.603 44.1646L30.4908 45.9216" stroke="#868EAA"/>
<path d="M61.1895 75.3333H56.8378M61.1895 75.3333L61.626 79.5M61.1895 75.3333L56.4014 79.5M56.8378 75.3333L61.626 79.5M56.8378 75.3333L56.4014 79.5M61.626 79.5L62.0624 83.6666M61.626 79.5L55.9649 83.6666M56.4014 79.5L55.9649 83.6666M56.4388 79.5L62.0624 83.6666M62.0624 83.6666L55.5285 87.8333M62.0624 83.6666L62.4988 87.8333M55.9649 83.6666L62.4988 87.8333M55.9649 83.6666L55.5285 87.8333M62.4988 87.8333L62.9352 92L55.5285 87.8333M62.4988 87.8333L55.0921 92L55.5285 87.8333" stroke="#868EAA"/>
<path d="M56.0725 74.3529V72.3922H55.3217C55.1763 72.3922 55.0383 72.3275 54.9452 72.2158L53.3586 70.3119C53.2118 70.1357 53.1314 69.9136 53.1314 69.6843V65.5294H64.8961V69.6843C64.8961 69.9136 64.8156 70.1357 64.6688 70.3119L63.0823 72.2158C62.9891 72.3275 62.8512 72.3922 62.7057 72.3922H61.9549V74.3529H56.0725Z" fill="#868EAA"/>
<rect x="54.1118" y="66.5098" width="0.980392" height="1.96078" fill="#868EAA"/>
<rect x="56.0725" y="66.5098" width="0.980392" height="1.96078" fill="#868EAA"/>
<path d="M22.4884 51.3023H19L19.4361 53.6279H20.7442H22.0524L22.4884 51.3023Z" fill="#868EAA"/>
<path d="M21.907 55.9535C21.907 56.5957 21.3864 57.1163 20.7442 57.1163C20.102 57.1163 19.5814 56.5957 19.5814 55.9535C19.5814 55.3113 20.102 54.7907 20.7442 54.7907V53.6279" stroke="#868EAA"/>
</g>
<path d="M105.537 93H93L95.2724 43H103.265L105.537 93Z" fill="#B5B9C7" fill-opacity="0.8"/>
<path d="M147.612 93H135.075L137.347 43H145.34L147.612 93Z" fill="#B5B9C7" fill-opacity="0.8"/>
<path d="M170.149 93H157.612L159.884 43H167.877L170.149 93Z" fill="#B5B9C7" fill-opacity="0.8"/>
<path d="M125.537 93H113L115.272 43H123.265L125.537 93Z" fill="#B5B9C7" fill-opacity="0.8"/>
<path d="M77 67.7853L179.23 59.9021L181.5 59.2917L183.518 58.7491L185.788 58.1387L191 61.6813V92.2013H77V67.7853Z" fill="#B5B9C7"/>
<path d="M181.5 59.2917V52.5H179.23V59.9021L181.5 59.2917Z" fill="#B5B9C7"/>
<path d="M185.788 58.1387V50.0029H183.518V58.7491L185.788 58.1387Z" fill="#B5B9C7"/>
<rect width="6.7451" height="1.68627" transform="matrix(-1 0 0 1 80.1961 61.647)" fill="#9DBEDE"/>
<path d="M67.549 50.6863L79.5493 51.3435M67.549 50.6863L79.5493 42.4235M67.549 50.6863V33.6471M67.549 50.6863L56.5882 40.2334M20.6914 6L27.7642 12.7451M29.7464 6H15.2745M29.7464 6L34.8371 9.72306M29.7464 6L27.7642 12.7451M79.5493 42.4235H82.9449M79.5493 42.4235V51.3435M79.5493 42.4235L67.549 33.6471M82.9449 42.4235V51.5294M82.9449 42.4235L92 45.6275M82.9449 42.4235L86.9412 36.9462M92 45.6275V34.6667H88.6044L86.9412 36.9462M92 45.6275L82.9449 51.5294M92 45.6275L86.9412 36.9462M82.9449 51.5294L79.5493 51.3435M15.2745 6H9.37255V22.0196H12.7451L15.2745 6ZM67.549 33.6471L56.5882 40.2334M67.549 33.6471L56.5882 25.6309M56.5882 40.2334V25.6309M56.5882 40.2334L45.6275 29.7805M56.5882 25.6309L45.6275 29.7805M56.5882 25.6309L45.6275 17.6146M45.6275 29.7805V17.6146M45.6275 29.7805L34.8371 19.4902M45.6275 17.6146L34.8371 19.4902M45.6275 17.6146L34.8371 9.72306M34.8371 19.4902V9.72306M34.8371 19.4902L27.7642 12.7451M34.8371 9.72306L27.7642 12.7451" stroke="#074970" stroke-width="1.5"/>
<path d="M80.566 63.3333H73.081M80.566 63.3333L81.3167 70.5M80.566 63.3333L72.3304 70.5M73.081 63.3333L81.3167 70.5M73.081 63.3333L72.3304 70.5M81.3167 70.5L82.0673 77.6666M81.3167 70.5L71.5797 77.6666M72.3304 70.5L71.5797 77.6666M72.3947 70.5L82.0673 77.6666M82.0673 77.6666L70.8291 84.8333M82.0673 77.6666L82.818 84.8333M71.5797 77.6666L82.818 84.8333M71.5797 77.6666L70.8291 84.8333M82.818 84.8333L83.5686 92L70.8291 84.8333M82.818 84.8333L70.0784 92L70.8291 84.8333" stroke="#9DBEDE" stroke-width="1.4"/>
<path d="M71.7647 61.6471V58.2745H70.4733C70.2231 58.2745 69.9858 58.1634 69.8256 57.9711L67.0967 54.6965C66.8442 54.3934 66.7059 54.0114 66.7059 53.6169V46.4706H86.9412V53.6169C86.9412 54.0114 86.8029 54.3934 86.5503 54.6965L83.8214 57.9711C83.6612 58.1634 83.4239 58.2745 83.1737 58.2745H81.8823V61.6471H71.7647Z" fill="#074970"/>
<rect x="68.3922" y="48.1569" width="1.68627" height="3.37255" fill="white"/>
<rect x="71.7647" y="48.1569" width="1.68627" height="3.37255" fill="white"/>
<path d="M14 22H8L8.75 26H11H13.25L14 22Z" fill="#074970"/>
<path d="M13 30C13 31.1046 12.1046 32 11 32C9.89543 32 9 31.1046 9 30C9 28.8954 9.89543 28 11 28V26" stroke="#074970"/>
<path d="M114 93H98L100.9 35H111.1L114 93Z" fill="#1D6387"/>
<path d="M155 93H139L141.9 35H152.1L155 93Z" fill="#1D6387"/>
<path d="M176 93H160L162.9 35H173.1L176 93Z" fill="#1D6387"/>
<path d="M134 93H118L120.9 35H131.1L134 93Z" fill="#1D6387"/>
<path d="M91.125 79.3747C91.125 79.0083 91.4231 78.7115 91.7895 78.7093C99.7837 78.6621 104.98 77.7693 108.312 77.068C111.481 76.4012 139.886 80.8433 144.11 81.5104C144.448 81.5638 144.715 81.7848 144.849 82.1001L145.304 83.169C145.397 83.3877 145.236 83.6304 144.999 83.6304H92.1201C91.5705 83.6304 91.125 83.1849 91.125 82.6353V79.3747Z" fill="#074970"/>
<path d="M95.5 85.125V82L96.75 82.625V85.125H95.5Z" fill="#9DBEDE"/>
<path d="M104.25 85.125V82L105.5 82.625V85.125H104.25Z" fill="#9DBEDE"/>
<path d="M113 85.125V82L114.25 82.625V85.125H113Z" fill="#9DBEDE"/>
<path d="M121.75 85.125V82L123 82.625V85.125H121.75Z" fill="#9DBEDE"/>
<path d="M130.5 85.125V82L131.75 82.625V85.125H130.5Z" fill="#9DBEDE"/>
<path d="M139.25 85.125V82L140.5 82.625V85.125H139.25Z" fill="#9DBEDE"/>
<rect x="90.7068" y="86.6802" width="54.5865" height="3.15789" fill="#074970"/>
<path d="M88 84.8757H148V86.6802C146.609 86.8542 146.126 87.1582 145.744 88.0336H145.293V86.6802H90.7068V88.0336H90.2556C89.9491 87.1055 89.3078 86.9118 88 86.6802V84.8757Z" fill="#9DBEDE"/>
<circle cx="94.9924" cy="90.0637" r="2.4812" fill="#074970"/>
<circle cx="102.662" cy="90.0637" r="2.4812" fill="#074970"/>
<circle cx="110.331" cy="90.0637" r="2.4812" fill="#074970"/>
<circle cx="118" cy="90.0637" r="2.4812" fill="#074970"/>
<circle cx="125.669" cy="90.0637" r="2.4812" fill="#074970"/>
<circle cx="133.338" cy="90.0637" r="2.4812" fill="#074970"/>
<circle cx="141.008" cy="90.0637" r="2.4812" fill="#074970"/>
<circle cx="94.9925" cy="90.0637" r="1.12782" fill="#9DBEDE"/>
<circle cx="102.662" cy="90.0637" r="1.12782" fill="#9DBEDE"/>
<circle cx="110.331" cy="90.0637" r="1.12782" fill="#9DBEDE"/>
<circle cx="118" cy="90.0637" r="1.12782" fill="#9DBEDE"/>
<circle cx="125.669" cy="90.0637" r="1.12782" fill="#9DBEDE"/>
<circle cx="133.338" cy="90.0637" r="1.12782" fill="#9DBEDE"/>
<circle cx="141.008" cy="90.0637" r="1.12782" fill="#9DBEDE"/>
<rect x="52" y="92" width="139" height="14" fill="#1D6387"/>
</svg>
