<svg width="187" height="97" viewBox="0 0 187 97" fill="none" xmlns="http://www.w3.org/2000/svg">
<rect x="9.5" y="61" width="7" height="8" fill="#9DBEDE"/>
<rect x="10.5" y="60" width="5" height="5" fill="#9DBEDE"/>
<path d="M24.5 50H28.5L28 53H26.5H25L24.5 50Z" fill="#074970"/>
<path d="M25.5 55C25.5 55.5523 25.9477 56 26.5 56C27.0523 56 27.5 55.5523 27.5 55C27.5 54.4477 27.0523 54 26.5 54V53" stroke="#074970"/>
<path d="M10.5 60L11.5723 54.1215M10.5 60L15.7908 55.809M10.5 60H15.7908V55.809M25.528 46H27.5L27.1417 49.9985H26.0667L25.528 46ZM25.528 46H22.5024M25.528 46L22.5024 49.3157M22.5024 46L18.897 48.679M22.5024 46V49.3157M11.5723 54.1215L15.2346 51.4003M11.5723 54.1215L15.7908 55.809M15.7908 55.809L15.2346 51.4003M15.7908 55.809L19.3124 52.3994M15.2346 51.4003L19.3124 52.3994M15.2346 51.4003L18.897 48.679M19.3124 52.3994L22.5024 49.3157M19.3124 52.3994L18.897 48.679M18.897 48.679L22.5024 49.3157" stroke="#074970"/>
<rect x="13.5" y="62" width="20" height="11" fill="#074970"/>
<rect x="35.5" y="62" width="20" height="11" fill="#074970"/>
<rect x="57.5" y="62" width="20" height="11" fill="#074970"/>
<path d="M132.261 38.5L134 40.5H129.5L128.544 38.5L126.63 34.5L124.957 31L124 29L125.739 31L128.783 34.5L132.261 38.5Z" fill="#074970"/>
<path d="M134 40.5V41.25H135.646L134.566 40.0079L134 40.5ZM124 29L124.566 28.5079C124.32 28.2247 123.902 28.1671 123.588 28.373C123.275 28.579 123.161 28.9851 123.323 29.3236L124 29ZM129.5 40.5L128.823 40.8236L129.027 41.25H129.5V40.5ZM136 39.25C136.414 39.25 136.75 38.9142 136.75 38.5C136.75 38.0858 136.414 37.75 136 37.75V39.25ZM124.5 37.75C124.086 37.75 123.75 38.0858 123.75 38.5C123.75 38.9142 124.086 39.25 124.5 39.25V37.75ZM131.5 35.25C131.914 35.25 132.25 34.9142 132.25 34.5C132.25 34.0858 131.914 33.75 131.5 33.75V35.25ZM123.5 33.75C123.086 33.75 122.75 34.0858 122.75 34.5C122.75 34.9142 123.086 35.25 123.5 35.25V33.75ZM127.5 31.75C127.914 31.75 128.25 31.4142 128.25 31C128.25 30.5858 127.914 30.25 127.5 30.25V31.75ZM123.5 30.25C123.086 30.25 122.75 30.5858 122.75 31C122.75 31.4142 123.086 31.75 123.5 31.75V30.25ZM134.566 40.0079L132.827 38.0079L131.695 38.9921L133.434 40.9921L134.566 40.0079ZM132.827 38.0079L129.349 34.0079L128.217 34.9921L131.695 38.9921L132.827 38.0079ZM129.349 34.0079L126.305 30.5079L125.173 31.4921L128.217 34.9921L129.349 34.0079ZM126.305 30.5079L124.566 28.5079L123.434 29.4921L125.173 31.4921L126.305 30.5079ZM123.323 29.3236L124.28 31.3236L125.633 30.6764L124.677 28.6764L123.323 29.3236ZM124.28 31.3236L125.954 34.8236L127.307 34.1764L125.633 30.6764L124.28 31.3236ZM125.954 34.8236L127.867 38.8236L129.22 38.1764L127.307 34.1764L125.954 34.8236ZM127.867 38.8236L128.823 40.8236L130.177 40.1764L129.22 38.1764L127.867 38.8236ZM129.5 41.25H134V39.75H129.5V41.25ZM136 37.75H132.261V39.25H136V37.75ZM132.261 37.75H128.544V39.25H132.261V37.75ZM128.544 37.75H124.5V39.25H128.544V37.75ZM131.5 33.75H128.783V35.25H131.5V33.75ZM128.783 33.75H126.63V35.25H128.783V33.75ZM126.63 33.75H123.5V35.25H126.63V33.75ZM127.5 30.25H125.739V31.75H127.5V30.25ZM125.739 30.25H124.957V31.75H125.739V30.25ZM124.957 30.25H123.5V31.75H124.957V30.25Z" fill="#074970"/>
<path d="M166 61L111.5 62.5L118 51.5L125.5 49.5V43C125.5 41.8954 126.395 41 127.5 41L147.5 41C147.914 41 148.285 41.2548 148.433 41.641L153.5 48.5L165 48.5L179 56L166 61Z" fill="#074970"/>
<path d="M125.5 43V49.5L118 51.5L111.5 62.5L166 61L179 56L165 48.5L153.5 48.5L148.433 41.641M125.5 43C125.5 41.8954 126.395 41 127.5 41M125.5 43V43C125.5 41.8954 126.395 41 127.5 41V41M127.5 41L147.5 41M147.5 41C147.914 41 148.285 41.2548 148.433 41.641M147.5 41V41C147.914 41 148.285 41.2548 148.433 41.641V41.641" stroke="#074970"/>
<path d="M144.46 41.6144L140.381 34.5M141.92 41.3072L140.275 38.5605" stroke="#074970" stroke-width="1.5" stroke-linecap="round"/>
<rect x="133.5" y="42.5" width="3" height="5" rx="1" fill="white"/>
<rect x="154.5" y="50.5" width="3" height="3" rx="1" fill="white"/>
<rect x="128.5" y="42.5" width="3" height="5" rx="1" fill="white"/>
<rect x="138.5" y="42.5" width="3" height="5" rx="1" fill="white"/>
<rect x="159.5" y="50.5" width="3" height="3" rx="1" fill="white"/>
<rect x="144.5" y="50.5" width="3" height="3" rx="1" fill="white"/>
<rect x="143.5" y="42.5" width="3" height="5" rx="1" fill="white"/>
<rect x="164.5" y="50.5" width="3" height="3" rx="1" fill="white"/>
<rect x="149.5" y="50.5" width="3" height="3" rx="1" fill="white"/>
<path d="M9.53359 95.6555C9.81279 96.4604 10.5712 97.0001 11.4231 97.0001H175.09C181.961 97.0001 174.116 89.1477 175.09 83.4191H5.28876L9.53359 95.6555Z" fill="#074970"/>
<path d="M2.80488 68.9138C1.42417 68.9033 0.471565 70.2614 0.920905 71.567L5 83.4191H175.097C176.079 77.3692 182.43 60.3733 184.956 56.685C186.764 54.0459 160.7 55.9379 125 56.5C121.536 56.5545 119.751 56.0995 117.17 61.2432C115.198 65.1735 113.146 68.6496 110.5 68.7063C106.926 68.7829 83.4977 68.8437 79.7315 68.8912C51.6887 69.2448 13.3839 68.9944 2.80488 68.9138Z" fill="#9DBEDE"/>
<path d="M79.7315 68.8912C83.4977 68.8437 106.926 68.7829 110.5 68.7063C113.146 68.6496 115.198 65.1735 117.17 61.2432L83.6019 61.4205C82.7394 61.425 81.977 61.982 81.7104 62.8023L79.7315 68.8912Z" fill="#9DBEDE"/>
<path d="M88.9694 41.3148L98.5548 41.8489M88.9694 41.3148L98.5548 34.6M88.9694 41.3148V27.4677M88.9694 41.3148L80.2143 32.8202M51.5411 5L57.1906 10.4815M58.774 5H47.2143M58.774 5L62.8402 8.02559M58.774 5L57.1906 10.4815M98.5548 34.6H101.267M98.5548 34.6V41.8489M98.5548 34.6L88.9694 27.4677M101.267 34.6V42M101.267 34.6L108.5 37.2037M101.267 34.6L104.459 30.1488M108.5 37.2037V28.2963H105.788L104.459 30.1488M108.5 37.2037L101.267 42M108.5 37.2037L104.459 30.1488M101.267 42L98.5548 41.8489M47.2143 5H42.5V18.0185H45.1939L47.2143 5ZM88.9694 27.4677L80.2143 32.8202M88.9694 27.4677L80.2143 20.9532M80.2143 32.8202V20.9532M80.2143 32.8202L71.4592 24.3255M80.2143 20.9532L71.4592 24.3255M80.2143 20.9532L71.4592 14.4388M71.4592 24.3255V14.4388M71.4592 24.3255L62.8402 15.963M71.4592 14.4388L62.8402 15.963M71.4592 14.4388L62.8402 8.02559M62.8402 15.963V8.02559M62.8402 15.963L57.1906 10.4815M62.8402 8.02559L57.1906 10.4815" stroke="#074970" stroke-width="1.5"/>
<path d="M92.5 50V47.3333H91.4789C91.2811 47.3333 91.0934 47.2455 90.9668 47.0935L88.809 44.5042C88.6094 44.2646 88.5 43.9625 88.5 43.6506V38H104.5V43.6506C104.5 43.9625 104.391 44.2646 104.191 44.5042L102.033 47.0935C101.907 47.2455 101.719 47.3333 101.521 47.3333H100.5V50H92.5Z" fill="#074970"/>
<path d="M46.5 18H41.5L42.125 21H44H45.875L46.5 18Z" fill="#074970"/>
<path d="M45.5 24.3333C45.5 25.2538 44.8284 26 44 26C43.1716 26 42.5 25.2538 42.5 24.3333C42.5 23.4129 43.1716 22.6667 44 22.6667V21" stroke="#074970"/>
<rect x="91.5" y="50" width="10" height="2" fill="#9DBEDE"/>
<rect x="90.5" y="52" width="12" height="18" fill="#9DBEDE"/>
</svg>
