<svg width="140" height="234" viewBox="0 0 140 234" fill="none" xmlns="http://www.w3.org/2000/svg">
<path fill-rule="evenodd" clip-rule="evenodd" d="M74.0384 170.831L21.2939 234H31.716L33.5001 231.863H116.442L118.297 234H128.893L74.0384 170.831ZM74.1578 183.169L113.087 228H36.7258L74.1578 183.169Z" fill="#FFB508"/>
<path opacity="0.5" fill-rule="evenodd" clip-rule="evenodd" d="M78 177V234H70V177H78Z" fill="#FFB508"/>
<path fill-rule="evenodd" clip-rule="evenodd" d="M78.5398 176.5L75.6554 71.9007L70.5463 71.388L68.5966 176.5H78.5398Z" fill="#074970"/>
<path d="M68.8841 161H78.1124L78.541 176.54H68.5958L68.8841 161Z" fill="#9DBEDE"/>
<path d="M76.4541 66.605C76.4541 68.2601 75.1119 69.6015 73.4541 69.6015C71.7986 69.6015 70.4541 68.2601 70.4541 66.605C70.4541 64.9498 71.7986 63.609 73.4541 63.609C75.1119 63.609 76.4541 64.9498 76.4541 66.605Z" fill="#074970"/>
<path d="M76.2925 70.5015L78.5483 66.9494C89.2353 71.0315 89.3469 70.4312 92.1172 72.2931C99.2174 77.0842 125.867 103.761 127.172 105.401C128.476 107.04 128.507 108.475 128.507 108.475L76.2925 70.5015ZM76.3838 61.9664L72.2783 61.0516C72.5208 49.6177 71.915 49.716 72.7346 46.4788C74.854 38.1797 90.9978 4.08165 92.1027 2.29796C93.2061 0.51589 94.5487 0.000516608 94.5487 0.000516608L76.3838 61.9664ZM68.5113 65.8842L70.2883 69.9752C61.4469 77.2439 61.9127 77.6376 58.9211 79.1262C51.2392 82.9276 14.8367 92.906 12.7627 93.2302C10.6909 93.5545 9.42636 92.8724 9.42636 92.8724L68.5113 65.8842Z" fill="#074970"/>
<path d="M64 171H65.0118V175.629H64V171Z" fill="#074970"/>
<path d="M66.7405 171H67.7523V175.629H66.7405V171Z" fill="#074970"/>
<path d="M69.4816 171H70.4934V175.629H69.4816V171Z" fill="#074970"/>
<path d="M72.2227 171H73.2345V175.629H72.2227V171Z" fill="#074970"/>
<path d="M74.9631 171H75.9757V175.629H74.9631V171Z" fill="#074970"/>
<path d="M77.7042 171H78.7161V175.629H77.7042V171Z" fill="#074970"/>
<path d="M80.4453 171H81.4572V175.629H80.4453V171Z" fill="#074970"/>
<path d="M83.1877 171H84.1996V175.629H83.1877V171Z" fill="#074970"/>
<path d="M64 175.321H84.1987V177.449H64V175.321Z" fill="#074970"/>
<path d="M64 171H84.1987V172.213H64V171Z" fill="#074970"/>
</svg>
