<svg width="201" height="238" viewBox="0 0 201 238" fill="none" xmlns="http://www.w3.org/2000/svg">
<path d="M111.655 71.9007L114.97 192.081H104.308L106.546 71.388" fill="#074970"/>
<path d="M112.454 66.605C112.454 68.2601 111.112 69.6015 109.454 69.6015C107.799 69.6015 106.454 68.2601 106.454 66.605C106.454 64.9498 107.799 63.609 109.454 63.609C111.112 63.609 112.454 64.9498 112.454 66.605Z" fill="#074970"/>
<path d="M112.293 70.5015L114.548 66.9494C125.235 71.0315 125.347 70.4312 128.117 72.2931C135.217 77.0842 161.867 103.761 163.172 105.401C164.476 107.04 164.507 108.475 164.507 108.475L112.293 70.5015ZM112.384 61.9664L108.278 61.0516C108.521 49.6177 107.915 49.716 108.735 46.4788C110.854 38.1797 126.998 4.08165 128.103 2.29796C129.206 0.51589 130.549 0.000516608 130.549 0.000516608L112.384 61.9664ZM104.511 65.8842L106.288 69.9752C97.4469 77.2439 97.9127 77.6376 94.9211 79.1262C87.2392 82.9276 50.8367 92.906 48.7627 93.2302C46.6909 93.5545 45.4264 92.8724 45.4264 92.8724L104.511 65.8842Z" fill="#074970"/>
<path d="M114.769 176.609H104.431L101.454 237.14H117.748L114.769 176.609Z" fill="#FFB508"/>
<g opacity="0.8">
<path d="M58.3186 119.878L60.6637 204.919H53.1191L54.7033 119.515" fill="#074970"/>
<path d="M58.8837 116.131C58.8837 117.302 57.934 118.251 56.7609 118.251C55.5894 118.251 54.6381 117.302 54.6381 116.131C54.6381 114.959 55.5894 114.011 56.7609 114.011C57.934 114.011 58.8837 114.959 58.8837 116.131Z" fill="#074970"/>
<path d="M53.5881 117.957L55.9483 119.772C52.3936 127.045 52.8095 127.162 51.3216 128.996C47.4947 133.696 27.0034 150.786 25.7649 151.601C24.5269 152.416 23.5134 152.348 23.5134 152.348L53.5881 117.957ZM59.5975 118.563L60.5026 115.727C68.5454 116.623 68.5146 116.19 70.744 116.973C76.4586 118.993 99.4657 132.534 100.653 133.426C101.839 134.316 102.117 135.295 102.117 135.295L59.5975 118.563ZM57.3357 112.766L54.3398 113.759C49.7779 107.067 49.4709 107.37 48.6115 105.167C46.4196 99.5121 41.6962 73.2239 41.5992 71.7417C41.5021 70.261 42.0631 69.4131 42.0631 69.4131L57.3357 112.766Z" fill="#074970"/>
<path d="M60.5219 193.971H53.2063L51.1 236.803H62.6296L60.5219 193.971Z" fill="#FFB508"/>
</g>
<g opacity="0.8">
<path d="M170.346 119.878L172.691 204.919H165.146L166.73 119.515" fill="#074970"/>
<path d="M170.911 116.131C170.911 117.302 169.961 118.251 168.788 118.251C167.616 118.251 166.665 117.302 166.665 116.131C166.665 114.959 167.616 114.011 168.788 114.011C169.961 114.011 170.911 114.959 170.911 116.131Z" fill="#074970"/>
<path d="M169.053 119.611L171.536 117.941C177.362 123.603 177.605 123.245 178.887 125.235C182.167 130.346 192.011 155.173 192.399 156.605C192.785 158.037 192.399 158.977 192.399 158.977L169.053 119.611ZM171.536 114.097L169.112 112.346C172.517 104.993 172.093 104.886 173.548 103.016C177.289 98.2273 197.521 80.6481 198.749 79.8019C199.976 78.9564 201 79.0004 201 79.0004L171.536 114.097ZM165.278 114.42V117.576C157.436 119.801 157.629 120.188 155.251 120.311C149.151 120.612 122.527 116.826 121.079 116.452C119.633 116.078 119 115.279 119 115.279L165.278 114.42Z" fill="#074970"/>
<path d="M172.549 193.971H165.233L163.127 236.804H174.657L172.549 193.971Z" fill="#FFB508"/>
</g>
</svg>
