<svg width="151" height="238" viewBox="0 0 151 238" fill="none" xmlns="http://www.w3.org/2000/svg">
<path d="M86.6555 71.9007L89.9696 192.081H79.3076L81.5463 71.388" fill="#074970"/>
<path d="M87.4541 66.605C87.4541 68.2601 86.1119 69.6015 84.4541 69.6015C82.7986 69.6015 81.4541 68.2601 81.4541 66.605C81.4541 64.9498 82.7986 63.609 84.4541 63.609C86.1119 63.609 87.4541 64.9498 87.4541 66.605Z" fill="#074970"/>
<path d="M87.2925 70.5015L89.5483 66.9494C100.235 71.0315 100.347 70.4312 103.117 72.2931C110.217 77.0842 136.867 103.761 138.172 105.401C139.476 107.04 139.507 108.475 139.507 108.475L87.2925 70.5015ZM87.3838 61.9664L83.2783 61.0516C83.5208 49.6177 82.915 49.716 83.7346 46.4788C85.854 38.1797 101.998 4.08165 103.103 2.29796C104.206 0.51589 105.549 0.000516608 105.549 0.000516608L87.3838 61.9664ZM79.5113 65.8842L81.2883 69.9752C72.4469 77.2439 72.9127 77.6376 69.9211 79.1262C62.2392 82.9276 25.8367 92.906 23.7627 93.2302C21.6909 93.5545 20.4264 92.8724 20.4264 92.8724L79.5113 65.8842Z" fill="#074970"/>
<path d="M89.7692 176.609H79.4307L76.4541 237.14H92.7478L89.7692 176.609Z" fill="#FFB508"/>
</svg>
